<svg width="195" height="41" viewBox="0 0 195 41" fill="none" xmlns="http://www.w3.org/2000/svg">
<path d="M52.7744 36.4204C50.0785 36.4204 47.7428 35.7998 45.7676 34.5586C43.7923 33.304 42.2708 31.569 41.2031 29.3535C40.1354 27.138 39.6016 24.5755 39.6016 21.666V21.1855C39.6016 18.2493 40.1354 15.6802 41.2031 13.478C42.2842 11.2625 43.759 9.53418 45.6274 8.29297C47.4959 7.05176 49.618 6.43115 51.9937 6.43115C54.2625 6.43115 56.1844 6.69141 57.7593 7.21191C59.3475 7.73242 60.7021 8.43311 61.8232 9.31396V15.1997H58.5801L58.1597 10.9756C57.5057 10.5485 56.7049 10.2282 55.7573 10.0146C54.8097 9.78776 53.6886 9.67432 52.394 9.67432C50.7257 9.67432 49.2243 10.1548 47.8896 11.1157C46.555 12.0767 45.5007 13.418 44.7266 15.1396C43.9525 16.848 43.5654 18.8499 43.5654 21.1455V21.666C43.5654 23.9883 43.9191 26.0169 44.6265 27.752C45.3472 29.4736 46.3949 30.8149 47.7695 31.7759C49.1442 32.7235 50.8125 33.1973 52.7744 33.1973C54.109 33.1973 55.2368 33.0838 56.1577 32.8569C57.0786 32.6167 57.8927 32.3097 58.6001 31.936V25.0894L53.0146 24.8892V21.9863H62.5439V33.2773C61.7031 34.0648 60.4953 34.7855 58.9204 35.4395C57.3589 36.0934 55.3102 36.4204 52.7744 36.4204ZM77.0179 36.4204C75.0159 36.4204 73.2876 35.9533 71.8328 35.019C70.3914 34.0715 69.277 32.7702 68.4896 31.1152C67.7021 29.4469 67.3084 27.5451 67.3084 25.4097V24.9692C67.3084 22.8338 67.7021 20.9386 68.4896 19.2837C69.277 17.6154 70.3914 16.3075 71.8328 15.3599C73.2876 14.4123 75.0026 13.9385 76.9778 13.9385C78.9798 13.9385 80.7015 14.4123 82.1429 15.3599C83.5976 16.3075 84.7187 17.6087 85.5062 19.2637C86.2936 20.9186 86.6873 22.8205 86.6873 24.9692V25.4097C86.6873 27.5584 86.2936 29.467 85.5062 31.1353C84.7187 32.7902 83.6043 34.0848 82.1629 35.019C80.7215 35.9533 79.0065 36.4204 77.0179 36.4204ZM77.0179 33.3374C78.2724 33.3374 79.3201 32.9971 80.1609 32.3164C81.0151 31.6224 81.6557 30.6815 82.0828 29.4937C82.5232 28.2925 82.7435 26.9312 82.7435 25.4097V24.9692C82.7435 23.4478 82.5232 22.0931 82.0828 20.9053C81.6557 19.7041 81.0151 18.7632 80.1609 18.0825C79.3068 17.3885 78.2457 17.0415 76.9778 17.0415C75.7233 17.0415 74.6689 17.3885 73.8147 18.0825C72.9606 18.7632 72.32 19.7041 71.8929 20.9053C71.4658 22.0931 71.2522 23.4478 71.2522 24.9692V25.4097C71.2522 26.9312 71.4658 28.2925 71.8929 29.4937C72.32 30.6815 72.9606 31.6224 73.8147 32.3164C74.6823 32.9971 75.75 33.3374 77.0179 33.3374ZM91.3116 26.4307V6.85156H95.2555V26.4307H91.3116ZM91.3116 36V31.916H95.2555V36H91.3116Z" fill="#4A5568"/>
<path d="M107.147 36V33.4775L110.41 32.917V9.83447H103.804L103.223 13.8784H100.26V6.85156H124.484V13.8784H121.561L120.96 9.83447H114.354V32.917L117.617 33.4775V36H107.147ZM135.835 36.4204C133.833 36.4204 132.091 35.9666 130.61 35.0591C129.128 34.1382 127.98 32.8636 127.166 31.2354C126.365 29.6071 125.965 27.7253 125.965 25.5898V24.709C125.965 22.6536 126.385 20.8185 127.226 19.2036C128.08 17.5754 129.208 16.2941 130.61 15.3599C132.024 14.4123 133.566 13.9385 135.234 13.9385C137.183 13.9385 138.811 14.3389 140.119 15.1396C141.44 15.9404 142.434 17.0682 143.102 18.5229C143.769 19.9644 144.103 21.666 144.103 23.6279V26.0903H130.049L129.989 26.1904C130.016 27.5785 130.256 28.813 130.71 29.894C131.177 30.9618 131.844 31.8026 132.712 32.4165C133.579 33.0304 134.62 33.3374 135.835 33.3374C137.169 33.3374 138.337 33.1506 139.338 32.7769C140.352 32.3898 141.227 31.8626 141.961 31.1953L143.502 33.7578C142.728 34.5052 141.7 35.1392 140.419 35.6597C139.151 36.1668 137.623 36.4204 135.835 36.4204ZM130.169 23.0073H140.159V22.4868C140.159 21.4458 139.972 20.5182 139.598 19.7041C139.238 18.8766 138.691 18.2293 137.957 17.7622C137.236 17.2817 136.328 17.0415 135.234 17.0415C134.353 17.0415 133.552 17.3018 132.832 17.8223C132.111 18.3294 131.517 19.0234 131.05 19.9043C130.583 20.7852 130.276 21.7861 130.129 22.9072L130.169 23.0073ZM157.976 36.4204C156.014 36.4204 154.306 35.9666 152.851 35.0591C151.396 34.1382 150.269 32.8636 149.468 31.2354C148.667 29.6071 148.267 27.7253 148.267 25.5898V24.749C148.267 22.6937 148.654 20.8519 149.428 19.2236C150.202 17.5954 151.316 16.3075 152.771 15.3599C154.226 14.4123 155.961 13.9385 157.976 13.9385C159.724 13.9385 161.253 14.2254 162.561 14.7993C163.882 15.3732 164.99 16.1606 165.884 17.1616L165.984 22.3667H162.901L162.22 18.583C161.766 18.1159 161.199 17.7422 160.519 17.4619C159.838 17.1816 159.037 17.0415 158.116 17.0415C156.942 17.0415 155.907 17.3885 155.013 18.0825C154.132 18.7765 153.445 19.7041 152.951 20.8652C152.457 22.0264 152.21 23.321 152.21 24.749V25.5898C152.21 27.1647 152.437 28.5327 152.891 29.6938C153.358 30.855 154.019 31.7559 154.873 32.3965C155.741 33.0238 156.768 33.3374 157.956 33.3374C159.291 33.3374 160.398 32.9704 161.279 32.2363C162.16 31.5023 162.701 30.4946 162.901 29.2134H166.444L166.484 29.3335C166.418 30.5747 166.051 31.7358 165.383 32.8169C164.716 33.8979 163.762 34.7721 162.521 35.4395C161.293 36.0934 159.778 36.4204 157.976 36.4204ZM169.267 36V33.4775L172.53 32.917V7.87256L169.267 7.31201V4.76953H176.474V17.2217C177.221 16.1807 178.136 15.3732 179.217 14.7993C180.298 14.2254 181.499 13.9385 182.82 13.9385C185.142 13.9385 186.944 14.6325 188.225 16.0205C189.507 17.4085 190.147 19.5439 190.147 22.4268V32.917L193.41 33.4775V36H182.94V33.4775L186.203 32.917V22.3867C186.203 20.5983 185.816 19.277 185.042 18.4229C184.282 17.5687 183.14 17.1416 181.619 17.1416C180.538 17.1416 179.55 17.4019 178.656 17.9224C177.775 18.4295 177.048 19.1235 176.474 20.0044V32.917L179.737 33.4775V36H169.267Z" fill="#25C56F"/>
<path d="M22.1667 17.25H15.8334C15.4135 17.25 15.0108 17.4168 14.7138 17.7138C14.4169 18.0107 14.2501 18.4134 14.2501 18.8334V25.1667C14.2501 25.5866 14.4169 25.9893 14.7138 26.2863C15.0108 26.5832 15.4135 26.75 15.8334 26.75H22.1667C22.5867 26.75 22.9894 26.5832 23.2863 26.2863C23.5833 25.9893 23.7501 25.5866 23.7501 25.1667V18.8334C23.7501 18.4134 23.5833 18.0107 23.2863 17.7138C22.9894 17.4168 22.5867 17.25 22.1667 17.25ZM20.5834 23.5834H17.4167V20.4167H20.5834V23.5834ZM33.2501 23.5834C33.67 23.5834 34.0727 23.4165 34.3697 23.1196C34.6666 22.8227 34.8334 22.4199 34.8334 22C34.8334 21.5801 34.6666 21.1774 34.3697 20.8804C34.0727 20.5835 33.67 20.4167 33.2501 20.4167H30.0834V17.25H33.2501C33.67 17.25 34.0727 17.0832 34.3697 16.7863C34.6666 16.4893 34.8334 16.0866 34.8334 15.6667C34.8334 15.2468 34.6666 14.844 34.3697 14.5471C34.0727 14.2502 33.67 14.0834 33.2501 14.0834H29.7984C29.562 13.4193 29.1807 12.8162 28.6823 12.3178C28.1839 11.8194 27.5808 11.4381 26.9167 11.2017V7.75002C26.9167 7.33009 26.7499 6.92737 26.453 6.63043C26.1561 6.3335 25.7533 6.16669 25.3334 6.16669C24.9135 6.16669 24.5108 6.3335 24.2138 6.63043C23.9169 6.92737 23.7501 7.33009 23.7501 7.75002V10.9167H20.5834V7.75002C20.5834 7.33009 20.4166 6.92737 20.1197 6.63043C19.8227 6.3335 19.42 6.16669 19.0001 6.16669C18.5802 6.16669 18.1774 6.3335 17.8805 6.63043C17.5836 6.92737 17.4167 7.33009 17.4167 7.75002V10.9167H14.2501V7.75002C14.2501 7.33009 14.0833 6.92737 13.7863 6.63043C13.4894 6.3335 13.0867 6.16669 12.6667 6.16669C12.2468 6.16669 11.8441 6.3335 11.5472 6.63043C11.2502 6.92737 11.0834 7.33009 11.0834 7.75002V11.2017C10.4194 11.4381 9.81626 11.8194 9.31784 12.3178C8.81942 12.8162 8.43817 13.4193 8.20175 14.0834H4.75008C4.33016 14.0834 3.92743 14.2502 3.6305 14.5471C3.33356 14.844 3.16675 15.2468 3.16675 15.6667C3.16675 16.0866 3.33356 16.4893 3.6305 16.7863C3.92743 17.0832 4.33016 17.25 4.75008 17.25H7.91675V20.4167H4.75008C4.33016 20.4167 3.92743 20.5835 3.6305 20.8804C3.33356 21.1774 3.16675 21.5801 3.16675 22C3.16675 22.4199 3.33356 22.8227 3.6305 23.1196C3.92743 23.4165 4.33016 23.5834 4.75008 23.5834H7.91675V26.75H4.75008C4.33016 26.75 3.92743 26.9168 3.6305 27.2138C3.33356 27.5107 3.16675 27.9134 3.16675 28.3334C3.16675 28.7533 3.33356 29.156 3.6305 29.4529C3.92743 29.7499 4.33016 29.9167 4.75008 29.9167H8.20175C8.43817 30.5807 8.81942 31.1838 9.31784 31.6823C9.81626 32.1807 10.4194 32.5619 11.0834 32.7984V36.25C11.0834 36.6699 11.2502 37.0727 11.5472 37.3696C11.8441 37.6665 12.2468 37.8334 12.6667 37.8334C13.0867 37.8334 13.4894 37.6665 13.7863 37.3696C14.0833 37.0727 14.2501 36.6699 14.2501 36.25V33.0834H17.4167V36.25C17.4167 36.6699 17.5836 37.0727 17.8805 37.3696C18.1774 37.6665 18.5802 37.8334 19.0001 37.8334C19.42 37.8334 19.8227 37.6665 20.1197 37.3696C20.4166 37.0727 20.5834 36.6699 20.5834 36.25V33.0834H23.7501V36.25C23.7501 36.6699 23.9169 37.0727 24.2138 37.3696C24.5108 37.6665 24.9135 37.8334 25.3334 37.8334C25.7533 37.8334 26.1561 37.6665 26.453 37.3696C26.7499 37.0727 26.9167 36.6699 26.9167 36.25V32.7984C27.5808 32.5619 28.1839 32.1807 28.6823 31.6823C29.1807 31.1838 29.562 30.5807 29.7984 29.9167H33.2501C33.67 29.9167 34.0727 29.7499 34.3697 29.4529C34.6666 29.156 34.8334 28.7533 34.8334 28.3334C34.8334 27.9134 34.6666 27.5107 34.3697 27.2138C34.0727 26.9168 33.67 26.75 33.2501 26.75H30.0834V23.5834H33.2501ZM26.9167 28.3334C26.9167 28.7533 26.7499 29.156 26.453 29.4529C26.1561 29.7499 25.7533 29.9167 25.3334 29.9167H12.6667C12.2468 29.9167 11.8441 29.7499 11.5472 29.4529C11.2502 29.156 11.0834 28.7533 11.0834 28.3334V15.6667C11.0834 15.2468 11.2502 14.844 11.5472 14.5471C11.8441 14.2502 12.2468 14.0834 12.6667 14.0834H25.3334C25.7533 14.0834 26.1561 14.2502 26.453 14.5471C26.7499 14.844 26.9167 15.2468 26.9167 15.6667V28.3334Z" fill="#25C56F"/>
</svg>
